<?xml version="1.0" encoding="UTF-8" standalone="no" ?>
<!DOCTYPE svg PUBLIC "-//W3C//DTD SVG 1.1//EN" "http://www.w3.org/Graphics/SVG/1.1/DTD/svg11.dtd">
<svg xmlns="http://www.w3.org/2000/svg" xmlns:xlink="http://www.w3.org/1999/xlink" version="1.1" width="1024" height="768" viewBox="0 0 1024 768" xml:space="preserve">
<g transform="matrix(0.7395294181 0 0 0.7395294181 512 384)" id="6LlRyHXXdOfQcOa6N3aO-"  >
<path style="stroke: none; stroke-width: 1; stroke-dasharray: none; stroke-linecap: butt; stroke-dashoffset: 0; stroke-linejoin: miter; stroke-miterlimit: 4; fill: rgb(227, 51, 169); fill-rule: nonzero; opacity: 1;" vector-effect="non-scaling-stroke"  transform=" translate(-335.4470949871, -434.6260525)" d="M 335.44709 0 C 386.69618 0 428.28965 41.59346 428.28965 92.84256 C 428.28965 104.76926 426.037 116.17302000000001 421.93425 126.65131000000001 C 438.27484000000004 144.13498 455.76223000000005 161.60994 473.48333 179.32265 L 473.48332000000005 179.32254 C 566.0187400000001 271.77135 670.89417 376.55829 670.89417 533.69519 C 670.91213 588.55819 657.5305000000001 641.5173 633.0589100000001 688.57008 C 639.5049600000001 701.20864 643.1406800000001 715.51659 643.1406800000001 730.66854 C 643.1406800000001 781.91763 601.54722 823.5111 550.29812 823.5111 C 538.02216 823.5111 526.3002200000001 821.12459 515.57123 816.79052 C 511.51425 819.3720900000001 507.39076 821.87364 503.20235 824.29243 C 399.39854 884.23869 271.49565 884.23869 167.69184 824.29243 C 165.09556 822.79309 162.52422 821.26194 159.97821000000002 819.69965 C 151.60998 822.1796400000001 142.74975 823.5111 133.58043 823.5111 C 82.33134000000001 823.5111 40.73787 781.91764 40.73787 730.66854 C 40.73787 720.68176 42.31731 711.06163 45.23986 702.0445 C 16.07565 651.7369699999999 -0.0196899999999971 593.86094 0.000019999999999242846 533.6951899999999 C 0.000019999999999242846 431.5932099999999 44.27571 351.5987799999999 100.66555 282.72934999999995 C 100.31689999999999 279.46099999999996 100.13808 276.1421399999999 100.13808 272.78175999999996 C 100.13808 221.53266999999997 141.73154 179.93919999999997 192.98064 179.93919999999997 C 194.22659 179.93919999999997 195.46684 179.96377999999996 196.70092 180.01248999999996 C 196.93108999999998 179.78245999999996 197.16118 179.55251999999996 197.3912 179.32263999999995 C 215.11554 161.60372999999996 232.60763 144.12272999999993 248.95276 126.63293999999995 C 244.85456000000002 116.15968999999996 242.60454000000001 104.76227999999995 242.60454000000001 92.84253999999996 C 242.60454000000001 41.593449999999955 284.19800000000004 -0.000020000000048980837 335.44710000000003 -0.000020000000048980837 z M 242.60453 464.2128 C 242.60453 446.70682 247.45770000000002 430.32746000000003 255.89111000000003 416.34767 L 208.30168000000003 364.36432 C 203.31725000000003 365.19309000000004 198.19899000000004 365.62433000000004 192.98063000000002 365.62433000000004 C 184.04998 365.62433000000004 175.41253 364.36128 167.23729000000003 362.0042 C 53.612900000000025 493.18602 123.04444000000004 611.19681 142.57549000000003 611.8600200000001 L 142.57516000000004 611.8600600000001 C 144.70734000000004 611.9329700000001 148.25878000000003 612.1896700000001 150.69022000000004 605.4061100000001 C 159.08154000000005 581.9968700000002 209.58421000000004 527.0390100000002 245.98546000000005 489.1114000000001 C 243.78223000000006 481.1867100000001 242.60453000000004 472.8364500000001 242.60453000000004 464.21280000000013 z M 335.44709 371.37024 C 386.69618 371.37024 428.28965 412.9637 428.28965 464.2128 C 428.28965 472.62514 427.16895999999997 480.77732000000003 425.06882 488.52809 C 468.81019000000003 535.69714 506.44374000000005 577.34428 515.47259 590.7054800000001 C 525.5028 605.5499000000001 526.95274 612.50323 540.52303 612.00899 C 548.1361199999999 611.73204 553.7767299999999 602.6534300000001 556.2632299999999 597.21536 L 556.2632399999999 597.2155700000001 C 567.9107099999999 571.74391 587.6638199999999 494.55645000000004 530.3470499999999 405.3551900000001 C 473.85602999999986 317.4390400000001 339.38349999999986 189.3573500000001 335.52056999999985 185.68509000000012 C 335.49607999999984 185.68511000000012 335.4715899999999 185.68512000000013 335.44708999999983 185.68512000000013 C 335.4162999999998 185.68512000000013 335.3855199999998 185.68510000000012 335.3547399999998 185.68507000000014 C 333.46682999999985 187.57184000000015 298.95710999999983 222.06094000000013 280.17990999999984 240.85181000000014 C 283.83045999999985 250.80925000000013 285.82318999999984 261.5642100000001 285.82318999999984 272.78177000000017 C 285.82318999999984 291.67999000000015 280.16737999999987 309.2652600000002 270.45719999999983 323.93614000000014 C 280.59947999999986 334.78722000000016 297.1034099999998 352.24974000000014 316.90608999999984 373.22444000000013 C 322.89775999999983 372.0085500000001 329.09832999999986 371.37024000000014 335.44707999999986 371.37024000000014 z M 335.44709 557.05536 C 319.072 557.05536 303.68268 552.8089699999999 290.32096 545.3580199999999 C 274.02404 563.4782399999999 257.51311 582.1169499999999 248.83403 592.7297999999998 C 230.67381 614.0113799999998 220.50469 640.9604299999999 220.07868000000002 668.9339599999998 C 220.07847 699.5317499999999 232.2333 728.8763899999999 253.86921 750.5122899999999 C 275.50512000000003 772.1481899999999 304.84975000000003 784.3030099999999 335.44754 784.3027899999998 L 335.44755 784.3027899999998 C 399.16393 784.3026199999998 450.81620999999996 732.6503399999998 450.81637 668.9339599999998 C 451.06392 640.7298599999998 440.73847 613.4559199999999 421.87485 592.4869799999999 C 412.82610999999997 582.3977499999999 396.2455 563.8482199999999 380.00777 545.6707499999999 C 366.77806 552.9276699999999 351.59168 557.0553599999998 335.44707999999997 557.0553599999998 z M 275.70083 92.84256 C 275.70083 125.8225 302.46715 152.58882 335.44709 152.58882 C 368.42703 152.58882 395.19335 125.82249999999999 395.19335 92.84255999999999 C 395.19335 59.86261999999999 368.42703 33.09629999999999 335.44709 33.09629999999999 C 302.46715 33.09629999999999 275.70083 59.86261999999999 275.70083 92.84255999999999 z M 275.70083 464.2128 C 275.70083 497.19274 302.46715 523.95906 335.44709 523.95906 C 368.42703 523.95906 395.19335 497.19274 395.19335 464.2128 C 395.19335 431.23286 368.42703 404.46654 335.44709 404.46654 C 302.46715 404.46654 275.70083 431.23286 275.70083 464.2128 z M 133.23438 272.78177 C 133.23438 305.76171 160.0007 332.52803 192.98064 332.52803 C 225.96058 332.52803 252.7269 305.76171 252.7269 272.78177 C 252.7269 239.80183 225.96058 213.03551 192.98064 213.03551 C 160.0007 213.03551 133.23438 239.80183 133.23438 272.78177 z M 73.83417 730.66855 C 73.83417 763.64849 100.60049000000001 790.41481 133.58043 790.41481 C 166.56037 790.41481 193.32669 763.64849 193.32669 730.66855 C 193.32669 697.6886099999999 166.56037 670.92229 133.58043 670.92229 C 100.60049000000001 670.92229 73.83417 697.6886099999999 73.83417 730.66855 z M 490.55186 730.66855 C 490.55186 763.64849 517.31818 790.41481 550.2981199999999 790.41481 C 583.2780599999999 790.41481 610.0443799999999 763.64849 610.0443799999999 730.66855 C 610.0443799999999 697.6886099999999 583.27806 670.92229 550.2981199999999 670.92229 C 517.31818 670.92229 490.5518599999999 697.6886099999999 490.5518599999999 730.66855 z" stroke-linecap="round" />
</g>
<g transform="matrix(1 0 0 1 361.8469135802 602.4061728395)" id="ihcCtCvERNZ9NZe6jJkrL"  >
<path style="stroke: rgb(227, 51, 169); stroke-width: 1; stroke-dasharray: none; stroke-linecap: butt; stroke-dashoffset: 0; stroke-linejoin: miter; stroke-miterlimit: 4; fill: rgb(255,255,255); fill-opacity: 0; fill-rule: nonzero; opacity: 1;" vector-effect="non-scaling-stroke"  transform=" translate(0, 0)" d="M 0 0" stroke-linecap="round" />
</g>
</svg>