<?xml version="1.0" encoding="UTF-8" standalone="no" ?>
<svg xmlns="http://www.w3.org/2000/svg" xmlns:xlink="http://www.w3.org/1999/xlink" version="1.1" viewBox="0 0 671 869" width="671" height="869">
  <g>
    <path style="stroke: none; stroke-width: 1; stroke-dasharray: none; stroke-linecap: butt; stroke-dashoffset: 0; stroke-linejoin: miter; stroke-miterlimit: 4; fill: rgb(227, 51, 169); fill-rule: nonzero; opacity: 1;" d="M335.447 0c51.25 0 92.843 41.593 92.843 92.843 0 11.926 -2.253 23.33 -6.356 33.808 16.34 17.484 33.828 34.959 51.55 52.672 92.535 92.448 197.41 197.235 197.41 354.372A335.185 335.185 0 0 1 633.06 688.57c6.446 12.639 10.082 26.947 10.082 42.099 0 51.249 -41.594 92.842 -92.843 92.842 -12.276 0 -23.998 -2.386 -34.727 -6.72a336.473 336.473 0 0 1 -12.369 7.501c-103.803 59.947 -231.706 59.947 -335.51 0a337.038 337.038 0 0 1 -7.714 -4.592 92.769 92.769 0 0 1 -26.398 3.811c-51.249 0 -92.842 -41.593 -92.842 -92.842a92.71 92.71 0 0 1 4.502 -28.625C16.076 651.737 -0.02 593.861 0 533.696 0 431.593 44.276 351.6 100.666 282.73a93.759 93.759 0 0 1 -0.528 -9.947c0 -51.25 41.594 -92.843 92.843 -92.843 1.246 0 2.486 0.025 3.72 0.073l0.69 -0.69c17.725 -17.718 35.217 -35.2 51.562 -52.69 -4.098 -10.472 -6.348 -21.87 -6.348 -33.79C242.605 41.594 284.198 0 335.447 0zm-92.842 464.213c0 -17.506 4.853 -33.886 13.286 -47.865l-47.59 -51.984a93.36 93.36 0 0 1 -15.32 1.26 92.796 92.796 0 0 1 -25.744 -3.62C53.613 493.186 123.044 611.197 142.575 611.86c2.132 0.073 5.684 0.33 8.115 -6.454 8.392 -23.41 58.894 -78.367 95.295 -116.295a92.832 92.832 0 0 1 -3.38 -24.898zm92.842 -92.843c51.25 0 92.843 41.594 92.843 92.843a92.864 92.864 0 0 1 -3.221 24.315c43.741 47.17 81.375 88.816 90.404 102.177 10.03 14.845 11.48 21.798 25.05 21.304 7.613 -0.277 13.254 -9.356 15.74 -14.794 11.648 -25.471 31.4 -102.659 -25.916 -191.86 -56.491 -87.916 -190.964 -215.998 -194.826 -219.67a89.97 89.97 0 0 1 -0.166 0c-1.888 1.887 -36.398 36.376 -55.175 55.167 3.65 9.957 5.643 20.712 5.643 31.93 0 18.898 -5.656 36.483 -15.366 51.154 10.142 10.851 26.646 28.314 46.45 49.288a93.157 93.157 0 0 1 18.54 -1.854zm0 185.685c-16.375 0 -31.764 -4.246 -45.126 -11.697 -16.297 18.12 -32.808 36.759 -41.487 47.372a120.217 120.217 0 0 0 -28.755 76.204 115.368 115.368 0 0 0 115.369 115.369c63.716 0 115.368 -51.653 115.368 -115.369a112.824 112.824 0 0 0 -28.941 -76.447c-9.049 -10.09 -25.63 -28.639 -41.867 -46.816 -13.23 7.257 -28.416 11.384 -44.56 11.384zM275.701 92.843c0 32.98 26.766 59.746 59.746 59.746 32.98 0 59.746 -26.767 59.746 -59.746 0 -32.98 -26.766 -59.747 -59.746 -59.747 -32.98 0 -59.746 26.767 -59.746 59.747zm0 371.37c0 32.98 26.766 59.746 59.746 59.746 32.98 0 59.746 -26.766 59.746 -59.746 0 -32.98 -26.766 -59.746 -59.746 -59.746 -32.98 0 -59.746 26.766 -59.746 59.746zM133.234 272.782c0 32.98 26.767 59.746 59.747 59.746 32.98 0 59.746 -26.766 59.746 -59.746 0 -32.98 -26.766 -59.746 -59.746 -59.746 -32.98 0 -59.747 26.766 -59.747 59.746zm-59.4 457.887c0 32.98 26.766 59.746 59.746 59.746 32.98 0 59.747 -26.767 59.747 -59.746 0 -32.98 -26.767 -59.747 -59.747 -59.747 -32.98 0 -59.746 26.767 -59.746 59.747zm416.718 0c0 32.98 26.766 59.746 59.746 59.746 32.98 0 59.746 -26.767 59.746 -59.746 0 -32.98 -26.766 -59.747 -59.746 -59.747 -32.98 0 -59.746 26.767 -59.746 59.747z"/>
  </g>
</svg>
